<?xml version="1.0" standalone="no"?>
<!DOCTYPE svg PUBLIC "-//W3C//DTD SVG 20010904//EN"
 "http://www.w3.org/TR/2001/REC-SVG-20010904/DTD/svg10.dtd">
<svg version="1.0" xmlns="http://www.w3.org/2000/svg"
 width="512.000000pt" height="512.000000pt" viewBox="0 0 512.000000 512.000000"
 preserveAspectRatio="xMidYMid meet">
<metadata>
Created by potrace 1.14, written by Peter Selinger 2001-2017
</metadata>
<g transform="translate(0.000000,512.000000) scale(0.100000,-0.100000)"
fill="#000000" stroke="none">
<path d="M415 5110 c-197 -41 -349 -188 -400 -385 -13 -52 -15 -307 -15 -2165
0 -2303 -4 -2154 57 -2280 38 -78 151 -189 233 -228 36 -16 92 -35 124 -41 84
-15 4208 -15 4292 0 97 18 180 64 260 143 76 76 114 142 139 242 14 54 15 300
13 2190 l-3 2129 -23 59 c-30 81 -73 144 -135 203 -63 59 -106 86 -183 116
l-59 22 -2130 1 c-1172 1 -2148 -2 -2170 -6z m303 -1482 c21 -29 197 -284 391
-565 195 -282 356 -513 360 -513 3 1 180 254 392 563 l386 562 104 0 104 0 3
-1117 2 -1118 -120 0 -120 0 0 881 c0 484 -3 878 -7 875 -5 -2 -172 -243 -373
-535 -201 -291 -369 -529 -374 -527 -5 1 -174 242 -375 534 l-366 532 -3 -880
-2 -880 -120 0 -120 0 0 1120 0 1120 100 0 99 0 39 -52z m2502 -554 c0 -377 4
-604 9 -602 6 2 248 273 538 603 l529 600 148 3 c85 1 146 -1 144 -7 -1 -5
-187 -217 -411 -472 -225 -255 -405 -469 -403 -476 5 -11 725 -1067 833 -1220
l44 -63 -145 0 -145 0 -357 517 c-197 285 -368 532 -381 550 l-24 31 -43 -46
c-23 -26 -108 -122 -189 -214 l-147 -168 0 -335 0 -335 -120 0 -120 0 0 1113
c0 613 3 1117 7 1120 3 4 57 7 120 7 l113 0 0 -606z"/>
</g>
</svg>
